<svg xmlns="http://www.w3.org/2000/svg" width="1000" height="700" viewBox="0 0 1000 700"><defs><radialGradient id="s"><stop stop-color="#b77c43"/><stop offset="1" stop-color="#754526"/></radialGradient></defs><rect width="1000" height="700" fill="#e7dcc8"/><path d="M0 80h1000M0 610h1000" stroke="#d8cab1" stroke-width="2"/><path d="m800 0 200 150v550L680 130Z" fill="#627053" opacity=".2"/><ellipse cx="500" cy="367" rx="258" ry="250" fill="#cabda4"/><circle cx="490" cy="345" r="260" fill="#fffaf0"/><circle cx="490" cy="345" r="224" fill="#ded6c6"/><circle cx="490" cy="345" r="215" fill="url(#s)"/><g stroke="#59331e" stroke-width="4" fill="#84502e"><path d="m348 262 68-16 33 42-22 55-71-12Z"/><path d="m510 243 57-12 43 45-23 59-66-19Z"/><path d="m420 370 73-19 32 45-30 45-65-13Z"/><path d="m545 392 61-10 31 39-15 53-74-15Z"/><path d="m332 376 46-8 23 45-23 46-46-17Z"/></g><g fill="none" stroke="#b57a4c" stroke-width="3"><path d="m364 278 49 18m-47 18 48-3m116-49 50 22m-52 14 37 11m-139 78 46 17m76 3 32 25"/></g><g fill="#dcab68" stroke="#b67e42" stroke-width="2"><path d="m355 250 48-12 22 38-42 24-30-19Z"/><path d="m550 430 45-5 21 37-41 22-30-21Z"/></g><g fill="#ba5432"><circle cx="600" cy="280" r="21"/><circle cx="390" cy="407" r="17"/><circle cx="505" cy="207" r="13"/></g><g fill="#486340"><path d="M470 337q-70-65-78-12 20 38 78 12M470 337q70-65 78-12-20 38-78 12M470 337q-30-80 10-81 40 15-10 81"/></g><path d="m470 340 9 65" fill="none" stroke="#486340" stroke-width="5"/><path d="M820 220v270" stroke="#a49d8c" stroke-width="13" stroke-linecap="round"/><ellipse cx="820" cy="191" rx="26" ry="42" fill="#b9b3a7"/></svg>
