<svg xmlns="http://www.w3.org/2000/svg" width="1000" height="700" viewBox="0 0 1000 700"><rect width="1000" height="700" fill="#e9ddc7"/><ellipse cx="500" cy="380" rx="235" ry="225" fill="#cabba0"/><circle cx="500" cy="350" r="220" fill="#fffaf0"/><circle cx="500" cy="350" r="169" fill="#c3854c"/><g fill="#e0ab62"><ellipse cx="430" cy="310" rx="60" ry="40"/><ellipse cx="560" cy="410" rx="70" ry="40"/><ellipse cx="570" cy="285" rx="50" ry="45"/></g><g fill="#63734d"><path d="M390 400q-30-90 60-60q25 60-60 60M530 330q-20-70 70-50q20 60-70 50M470 430q-10-80 60-40q0 50-60 40"/></g><g fill="#ad513a"><circle cx="440" cy="395" r="18"/><circle cx="555" cy="335" r="19"/><circle cx="515" cy="260" r="14"/></g></svg>
